<svg width="1280" height="733" viewBox="0 0 1280 733" fill="none" xmlns="http://www.w3.org/2000/svg">
<rect width="1280" height="733" fill="#0F0B0B"/>
<path d="M366.719 326.266C361.656 326.266 357.344 325.75 353.781 324.719C350.25 323.656 346.922 322.359 343.797 320.828V309.203H344.453C347.516 312.078 350.984 314.312 354.859 315.906C358.734 317.469 362.469 318.25 366.062 318.25C371.188 318.25 375.062 317.188 377.688 315.062C380.312 312.906 381.625 310.078 381.625 306.578C381.625 303.797 380.938 301.531 379.562 299.781C378.188 298.031 376 296.734 373 295.891C370.844 295.266 368.875 294.75 367.094 294.344C365.312 293.938 363.078 293.391 360.391 292.703C357.984 292.078 355.828 291.281 353.922 290.312C352.016 289.344 350.328 288.078 348.859 286.516C347.422 284.984 346.297 283.188 345.484 281.125C344.703 279.031 344.312 276.625 344.312 273.906C344.312 268.25 346.516 263.516 350.922 259.703C355.328 255.859 360.953 253.938 367.797 253.938C371.703 253.938 375.391 254.328 378.859 255.109C382.359 255.891 385.594 257 388.562 258.438V269.547H387.859C385.641 267.516 382.797 265.75 379.328 264.25C375.859 262.719 372.219 261.953 368.406 261.953C364.094 261.953 360.609 262.969 357.953 265C355.297 267 353.969 269.641 353.969 272.922C353.969 275.891 354.75 278.25 356.312 280C357.875 281.75 360.141 283.031 363.109 283.844C365.078 284.375 367.484 284.984 370.328 285.672C373.172 286.328 375.531 286.938 377.406 287.5C382.219 288.969 385.734 291.188 387.953 294.156C390.172 297.125 391.281 300.781 391.281 305.125C391.281 307.844 390.719 310.531 389.594 313.188C388.5 315.844 386.953 318.094 384.953 319.938C382.703 321.969 380.156 323.531 377.312 324.625C374.5 325.719 370.969 326.266 366.719 326.266ZM409.094 325H400.281V272.641H409.094V325ZM409.703 263.875H399.672V254.734H409.703V263.875ZM481.469 325V294.719C481.469 292.312 481.375 290.094 481.188 288.062C481 286 480.609 284.391 480.016 283.234C479.391 281.984 478.5 281.062 477.344 280.469C476.188 279.875 474.625 279.578 472.656 279.578C470.844 279.578 468.891 280.141 466.797 281.266C464.734 282.359 462.594 283.953 460.375 286.047C460.406 286.578 460.438 287.219 460.469 287.969C460.531 288.688 460.562 289.547 460.562 290.547V325H451.75V294.719C451.75 292.312 451.656 290.094 451.469 288.062C451.281 286 450.891 284.391 450.297 283.234C449.672 281.984 448.781 281.062 447.625 280.469C446.469 279.875 444.906 279.578 442.938 279.578C441.031 279.578 439.031 280.172 436.938 281.359C434.844 282.547 432.812 284.062 430.844 285.906V325H422.031V272.641H430.844V278.453C433.156 276.141 435.438 274.359 437.688 273.109C439.969 271.828 442.469 271.188 445.188 271.188C448.281 271.188 451.016 271.891 453.391 273.297C455.797 274.703 457.625 277.016 458.875 280.234C461.531 277.266 464.125 275.016 466.656 273.484C469.188 271.953 471.938 271.188 474.906 271.188C477.156 271.188 479.203 271.547 481.047 272.266C482.891 272.953 484.5 274.078 485.875 275.641C487.281 277.234 488.359 279.219 489.109 281.594C489.891 283.969 490.281 286.953 490.281 290.547V325H481.469ZM546.578 297.438C546.578 306.156 544.484 313.109 540.297 318.297C536.141 323.453 530.875 326.031 524.5 326.031C521.906 326.031 519.609 325.734 517.609 325.141C515.609 324.547 513.562 323.625 511.469 322.375V344.312H502.656V272.641H511.469V278.125C513.656 276.156 516.078 274.516 518.734 273.203C521.422 271.859 524.344 271.188 527.5 271.188C533.5 271.188 538.172 273.562 541.516 278.312C544.891 283.062 546.578 289.438 546.578 297.438ZM537.484 298.422C537.484 292.453 536.531 287.828 534.625 284.547C532.719 281.234 529.625 279.578 525.344 279.578C522.844 279.578 520.422 280.141 518.078 281.266C515.766 282.359 513.562 283.781 511.469 285.531V315.203C513.781 316.328 515.75 317.094 517.375 317.5C519.031 317.906 520.922 318.109 523.047 318.109C527.609 318.109 531.156 316.438 533.688 313.094C536.219 309.75 537.484 304.859 537.484 298.422ZM564.719 325H555.906V252.062H564.719V325ZM600.391 326.219C592.047 326.219 585.562 323.875 580.938 319.188C576.344 314.469 574.047 307.781 574.047 299.125C574.047 290.594 576.281 283.812 580.75 278.781C585.219 273.719 591.062 271.188 598.281 271.188C601.531 271.188 604.406 271.656 606.906 272.594C609.406 273.531 611.594 275 613.469 277C615.344 279 616.781 281.453 617.781 284.359C618.781 287.234 619.281 290.766 619.281 294.953V299.734H583C583 305.828 584.531 310.484 587.594 313.703C590.656 316.922 594.891 318.531 600.297 318.531C602.234 318.531 604.125 318.312 605.969 317.875C607.844 317.438 609.531 316.875 611.031 316.188C612.625 315.469 613.969 314.781 615.062 314.125C616.156 313.438 617.062 312.797 617.781 312.203H618.297V321.812C617.266 322.219 615.984 322.734 614.453 323.359C612.922 323.953 611.547 324.422 610.328 324.766C608.609 325.234 607.047 325.594 605.641 325.844C604.266 326.094 602.516 326.219 600.391 326.219ZM610.703 292.984C610.641 290.609 610.359 288.562 609.859 286.844C609.359 285.125 608.641 283.672 607.703 282.484C606.672 281.172 605.344 280.172 603.719 279.484C602.125 278.797 600.141 278.453 597.766 278.453C595.422 278.453 593.422 278.812 591.766 279.531C590.141 280.219 588.656 281.234 587.312 282.578C586 283.953 585 285.484 584.312 287.172C583.625 288.828 583.188 290.766 583 292.984H610.703ZM678.344 326.266C673.281 326.266 668.969 325.75 665.406 324.719C661.875 323.656 658.547 322.359 655.422 320.828V309.203H656.078C659.141 312.078 662.609 314.312 666.484 315.906C670.359 317.469 674.094 318.25 677.688 318.25C682.812 318.25 686.688 317.188 689.312 315.062C691.938 312.906 693.25 310.078 693.25 306.578C693.25 303.797 692.562 301.531 691.188 299.781C689.812 298.031 687.625 296.734 684.625 295.891C682.469 295.266 680.5 294.75 678.719 294.344C676.938 293.938 674.703 293.391 672.016 292.703C669.609 292.078 667.453 291.281 665.547 290.312C663.641 289.344 661.953 288.078 660.484 286.516C659.047 284.984 657.922 283.188 657.109 281.125C656.328 279.031 655.938 276.625 655.938 273.906C655.938 268.25 658.141 263.516 662.547 259.703C666.953 255.859 672.578 253.938 679.422 253.938C683.328 253.938 687.016 254.328 690.484 255.109C693.984 255.891 697.219 257 700.188 258.438V269.547H699.484C697.266 267.516 694.422 265.75 690.953 264.25C687.484 262.719 683.844 261.953 680.031 261.953C675.719 261.953 672.234 262.969 669.578 265C666.922 267 665.594 269.641 665.594 272.922C665.594 275.891 666.375 278.25 667.938 280C669.5 281.75 671.766 283.031 674.734 283.844C676.703 284.375 679.109 284.984 681.953 285.672C684.797 286.328 687.156 286.938 689.031 287.5C693.844 288.969 697.359 291.188 699.578 294.156C701.797 297.125 702.906 300.781 702.906 305.125C702.906 307.844 702.344 310.531 701.219 313.188C700.125 315.844 698.578 318.094 696.578 319.938C694.328 321.969 691.781 323.531 688.938 324.625C686.125 325.719 682.594 326.266 678.344 326.266ZM727.562 326.031C722.75 326.031 719 324.672 716.312 321.953C713.625 319.203 712.281 314.875 712.281 308.969V279.953H706.328V272.641H712.281V257.594H721.094V272.641H737.312V279.953H721.094V304.844C721.094 307.5 721.141 309.547 721.234 310.984C721.328 312.422 721.688 313.766 722.312 315.016C722.844 316.109 723.703 316.938 724.891 317.5C726.078 318.031 727.688 318.297 729.719 318.297C731.156 318.297 732.547 318.094 733.891 317.688C735.234 317.25 736.203 316.891 736.797 316.609H737.312V324.531C735.656 325 733.969 325.359 732.25 325.609C730.562 325.891 729 326.031 727.562 326.031ZM773.125 312.109V297.578C771.031 297.766 768.375 298.031 765.156 298.375C761.969 298.688 759.391 299.141 757.422 299.734C755.078 300.453 753.141 301.562 751.609 303.062C750.078 304.531 749.312 306.594 749.312 309.25C749.312 312.25 750.156 314.516 751.844 316.047C753.531 317.578 756 318.344 759.25 318.344C762.031 318.344 764.547 317.75 766.797 316.562C769.047 315.344 771.156 313.859 773.125 312.109ZM773.125 319.422C772.406 319.953 771.438 320.703 770.219 321.672C769.031 322.609 767.875 323.359 766.75 323.922C765.188 324.734 763.672 325.359 762.203 325.797C760.766 326.234 758.734 326.453 756.109 326.453C753.953 326.453 751.906 326.047 749.969 325.234C748.031 324.422 746.328 323.281 744.859 321.812C743.453 320.375 742.328 318.609 741.484 316.516C740.641 314.391 740.219 312.156 740.219 309.812C740.219 306.188 740.984 303.109 742.516 300.578C744.047 298.016 746.469 295.984 749.781 294.484C752.719 293.141 756.188 292.219 760.188 291.719C764.188 291.188 768.5 290.797 773.125 290.547V288.859C773.125 286.797 772.812 285.141 772.188 283.891C771.562 282.609 770.688 281.625 769.562 280.938C768.438 280.219 767.062 279.75 765.438 279.531C763.812 279.281 762.141 279.156 760.422 279.156C758.391 279.156 756 279.469 753.25 280.094C750.5 280.688 747.75 281.562 745 282.719H744.484V273.766C746.109 273.297 748.438 272.781 751.469 272.219C754.5 271.656 757.5 271.375 760.469 271.375C764.062 271.375 767.094 271.656 769.562 272.219C772.031 272.781 774.25 273.797 776.219 275.266C778.125 276.703 779.547 278.562 780.484 280.844C781.422 283.125 781.891 285.906 781.891 289.188V325H773.125V319.422ZM822.062 282.109H821.594C820.938 281.922 820.234 281.812 819.484 281.781C818.766 281.719 817.891 281.688 816.859 281.688C814.484 281.688 812.125 282.203 809.781 283.234C807.438 284.266 805.219 285.797 803.125 287.828V325H794.312V272.641H803.125V280.422C806.344 277.578 809.141 275.578 811.516 274.422C813.922 273.234 816.25 272.641 818.5 272.641C819.406 272.641 820.078 272.672 820.516 272.734C820.984 272.766 821.5 272.828 822.062 272.922V282.109ZM844.75 326.031C839.938 326.031 836.188 324.672 833.5 321.953C830.812 319.203 829.469 314.875 829.469 308.969V279.953H823.516V272.641H829.469V257.594H838.281V272.641H854.5V279.953H838.281V304.844C838.281 307.5 838.328 309.547 838.422 310.984C838.516 312.422 838.875 313.766 839.5 315.016C840.031 316.109 840.891 316.938 842.078 317.5C843.266 318.031 844.875 318.297 846.906 318.297C848.344 318.297 849.734 318.094 851.078 317.688C852.422 317.25 853.391 316.891 853.984 316.609H854.5V324.531C852.844 325 851.156 325.359 849.438 325.609C847.75 325.891 846.188 326.031 844.75 326.031ZM883.797 326.219C875.453 326.219 868.969 323.875 864.344 319.188C859.75 314.469 857.453 307.781 857.453 299.125C857.453 290.594 859.688 283.812 864.156 278.781C868.625 273.719 874.469 271.188 881.688 271.188C884.938 271.188 887.812 271.656 890.312 272.594C892.812 273.531 895 275 896.875 277C898.75 279 900.188 281.453 901.188 284.359C902.188 287.234 902.688 290.766 902.688 294.953V299.734H866.406C866.406 305.828 867.938 310.484 871 313.703C874.062 316.922 878.297 318.531 883.703 318.531C885.641 318.531 887.531 318.312 889.375 317.875C891.25 317.438 892.938 316.875 894.438 316.188C896.031 315.469 897.375 314.781 898.469 314.125C899.562 313.438 900.469 312.797 901.188 312.203H901.703V321.812C900.672 322.219 899.391 322.734 897.859 323.359C896.328 323.953 894.953 324.422 893.734 324.766C892.016 325.234 890.453 325.594 889.047 325.844C887.672 326.094 885.922 326.219 883.797 326.219ZM894.109 292.984C894.047 290.609 893.766 288.562 893.266 286.844C892.766 285.125 892.047 283.672 891.109 282.484C890.078 281.172 888.75 280.172 887.125 279.484C885.531 278.797 883.547 278.453 881.172 278.453C878.828 278.453 876.828 278.812 875.172 279.531C873.547 280.219 872.062 281.234 870.719 282.578C869.406 283.953 868.406 285.484 867.719 287.172C867.031 288.828 866.594 290.766 866.406 292.984H894.109ZM939.344 282.109H938.875C938.219 281.922 937.516 281.812 936.766 281.781C936.047 281.719 935.172 281.688 934.141 281.688C931.766 281.688 929.406 282.203 927.062 283.234C924.719 284.266 922.5 285.797 920.406 287.828V325H911.594V272.641H920.406V280.422C923.625 277.578 926.422 275.578 928.797 274.422C931.203 273.234 933.531 272.641 935.781 272.641C936.688 272.641 937.359 272.672 937.797 272.734C938.266 272.766 938.781 272.828 939.344 272.922V282.109Z" fill="white"/>
<path d="M354.125 398.422C352.438 398.422 351 398.25 349.812 397.906C348.635 397.552 347.526 397.12 346.484 396.609V392.734H346.703C347.724 393.693 348.88 394.438 350.172 394.969C351.464 395.49 352.708 395.75 353.906 395.75C355.615 395.75 356.906 395.396 357.781 394.688C358.656 393.969 359.094 393.026 359.094 391.859C359.094 390.932 358.865 390.177 358.406 389.594C357.948 389.01 357.219 388.578 356.219 388.297C355.5 388.089 354.844 387.917 354.25 387.781C353.656 387.646 352.911 387.464 352.016 387.234C351.214 387.026 350.495 386.76 349.859 386.438C349.224 386.115 348.661 385.693 348.172 385.172C347.693 384.661 347.318 384.062 347.047 383.375C346.786 382.677 346.656 381.875 346.656 380.969C346.656 379.083 347.391 377.505 348.859 376.234C350.328 374.953 352.203 374.312 354.484 374.312C355.786 374.312 357.016 374.443 358.172 374.703C359.339 374.964 360.417 375.333 361.406 375.812V379.516H361.172C360.432 378.839 359.484 378.25 358.328 377.75C357.172 377.24 355.958 376.984 354.688 376.984C353.25 376.984 352.089 377.323 351.203 378C350.318 378.667 349.875 379.547 349.875 380.641C349.875 381.63 350.135 382.417 350.656 383C351.177 383.583 351.932 384.01 352.922 384.281C353.578 384.458 354.38 384.661 355.328 384.891C356.276 385.109 357.062 385.312 357.688 385.5C359.292 385.99 360.464 386.729 361.203 387.719C361.943 388.708 362.312 389.927 362.312 391.375C362.312 392.281 362.125 393.177 361.75 394.062C361.385 394.948 360.87 395.698 360.203 396.312C359.453 396.99 358.604 397.51 357.656 397.875C356.719 398.24 355.542 398.422 354.125 398.422ZM368.25 398H365.312V380.547H368.25V398ZM368.453 377.625H365.109V374.578H368.453V377.625ZM392.375 398V387.906C392.375 387.104 392.344 386.365 392.281 385.688C392.219 385 392.089 384.464 391.891 384.078C391.682 383.661 391.385 383.354 391 383.156C390.615 382.958 390.094 382.859 389.438 382.859C388.833 382.859 388.182 383.047 387.484 383.422C386.797 383.786 386.083 384.318 385.344 385.016C385.354 385.193 385.365 385.406 385.375 385.656C385.396 385.896 385.406 386.182 385.406 386.516V398H382.469V387.906C382.469 387.104 382.438 386.365 382.375 385.688C382.312 385 382.182 384.464 381.984 384.078C381.776 383.661 381.479 383.354 381.094 383.156C380.708 382.958 380.188 382.859 379.531 382.859C378.896 382.859 378.229 383.057 377.531 383.453C376.833 383.849 376.156 384.354 375.5 384.969V398H372.562V380.547H375.5V382.484C376.271 381.714 377.031 381.12 377.781 380.703C378.542 380.276 379.375 380.062 380.281 380.062C381.312 380.062 382.224 380.297 383.016 380.766C383.818 381.234 384.427 382.005 384.844 383.078C385.729 382.089 386.594 381.339 387.438 380.828C388.281 380.318 389.198 380.062 390.188 380.062C390.938 380.062 391.62 380.182 392.234 380.422C392.849 380.651 393.385 381.026 393.844 381.547C394.312 382.078 394.672 382.74 394.922 383.531C395.182 384.323 395.312 385.318 395.312 386.516V398H392.375ZM414.078 388.812C414.078 391.719 413.38 394.036 411.984 395.766C410.599 397.484 408.844 398.344 406.719 398.344C405.854 398.344 405.089 398.245 404.422 398.047C403.755 397.849 403.073 397.542 402.375 397.125V404.438H399.438V380.547H402.375V382.375C403.104 381.719 403.911 381.172 404.797 380.734C405.693 380.286 406.667 380.062 407.719 380.062C409.719 380.062 411.276 380.854 412.391 382.438C413.516 384.021 414.078 386.146 414.078 388.812ZM411.047 389.141C411.047 387.151 410.729 385.609 410.094 384.516C409.458 383.411 408.427 382.859 407 382.859C406.167 382.859 405.359 383.047 404.578 383.422C403.807 383.786 403.073 384.26 402.375 384.844V394.734C403.146 395.109 403.802 395.365 404.344 395.5C404.896 395.635 405.526 395.703 406.234 395.703C407.755 395.703 408.938 395.146 409.781 394.031C410.625 392.917 411.047 391.286 411.047 389.141ZM420.125 398H417.188V373.688H420.125V398ZM432.016 398.406C429.234 398.406 427.073 397.625 425.531 396.062C424 394.49 423.234 392.26 423.234 389.375C423.234 386.531 423.979 384.271 425.469 382.594C426.958 380.906 428.906 380.062 431.312 380.062C432.396 380.062 433.354 380.219 434.188 380.531C435.021 380.844 435.75 381.333 436.375 382C437 382.667 437.479 383.484 437.812 384.453C438.146 385.411 438.312 386.589 438.312 387.984V389.578H426.219C426.219 391.609 426.729 393.161 427.75 394.234C428.771 395.307 430.182 395.844 431.984 395.844C432.63 395.844 433.26 395.771 433.875 395.625C434.5 395.479 435.062 395.292 435.562 395.062C436.094 394.823 436.542 394.594 436.906 394.375C437.271 394.146 437.573 393.932 437.812 393.734H437.984V396.938C437.641 397.073 437.214 397.245 436.703 397.453C436.193 397.651 435.734 397.807 435.328 397.922C434.755 398.078 434.234 398.198 433.766 398.281C433.307 398.365 432.724 398.406 432.016 398.406ZM435.453 387.328C435.432 386.536 435.339 385.854 435.172 385.281C435.005 384.708 434.766 384.224 434.453 383.828C434.109 383.391 433.667 383.057 433.125 382.828C432.594 382.599 431.932 382.484 431.141 382.484C430.359 382.484 429.693 382.604 429.141 382.844C428.599 383.073 428.104 383.411 427.656 383.859C427.219 384.318 426.885 384.828 426.656 385.391C426.427 385.943 426.281 386.589 426.219 387.328H435.453ZM456 398.422C454.833 398.422 453.74 398.266 452.719 397.953C451.708 397.641 450.87 397.307 450.203 396.953V393.656H450.359C450.609 393.854 450.901 394.073 451.234 394.312C451.578 394.552 452.031 394.802 452.594 395.062C453.094 395.292 453.641 395.495 454.234 395.672C454.839 395.849 455.464 395.938 456.109 395.938C456.578 395.938 457.078 395.885 457.609 395.781C458.141 395.667 458.536 395.526 458.797 395.359C459.161 395.12 459.422 394.865 459.578 394.594C459.745 394.323 459.828 393.917 459.828 393.375C459.828 392.677 459.635 392.151 459.25 391.797C458.875 391.443 458.203 391.146 457.234 390.906C456.859 390.812 456.37 390.703 455.766 390.578C455.161 390.453 454.604 390.318 454.094 390.172C452.76 389.786 451.792 389.193 451.188 388.391C450.583 387.578 450.281 386.599 450.281 385.453C450.281 383.88 450.875 382.599 452.062 381.609C453.25 380.62 454.828 380.125 456.797 380.125C457.766 380.125 458.74 380.245 459.719 380.484C460.698 380.724 461.521 381.026 462.188 381.391V384.531H462.031C461.281 383.938 460.443 383.469 459.516 383.125C458.599 382.781 457.672 382.609 456.734 382.609C455.766 382.609 454.948 382.812 454.281 383.219C453.615 383.625 453.281 384.24 453.281 385.062C453.281 385.792 453.479 386.339 453.875 386.703C454.271 387.057 454.906 387.349 455.781 387.578C456.219 387.693 456.703 387.807 457.234 387.922C457.776 388.026 458.344 388.151 458.938 388.297C460.229 388.62 461.198 389.156 461.844 389.906C462.5 390.656 462.828 391.677 462.828 392.969C462.828 393.719 462.677 394.432 462.375 395.109C462.083 395.776 461.651 396.349 461.078 396.828C460.453 397.349 459.745 397.745 458.953 398.016C458.172 398.286 457.188 398.422 456 398.422ZM470.844 398.344C469.24 398.344 467.99 397.891 467.094 396.984C466.198 396.068 465.75 394.625 465.75 392.656V382.984H463.766V380.547H465.75V375.531H468.688V380.547H474.094V382.984H468.688V391.281C468.688 392.167 468.703 392.849 468.734 393.328C468.766 393.807 468.885 394.255 469.094 394.672C469.271 395.036 469.557 395.312 469.953 395.5C470.349 395.677 470.885 395.766 471.562 395.766C472.042 395.766 472.505 395.698 472.953 395.562C473.401 395.417 473.724 395.297 473.922 395.203H474.094V397.844C473.542 398 472.979 398.12 472.406 398.203C471.844 398.297 471.323 398.344 470.844 398.344ZM486.031 393.703V388.859C485.333 388.922 484.448 389.01 483.375 389.125C482.312 389.229 481.453 389.38 480.797 389.578C480.016 389.818 479.37 390.188 478.859 390.688C478.349 391.177 478.094 391.865 478.094 392.75C478.094 393.75 478.375 394.505 478.938 395.016C479.5 395.526 480.323 395.781 481.406 395.781C482.333 395.781 483.172 395.583 483.922 395.188C484.672 394.781 485.375 394.286 486.031 393.703ZM486.031 396.141C485.792 396.318 485.469 396.568 485.062 396.891C484.667 397.203 484.281 397.453 483.906 397.641C483.385 397.911 482.88 398.12 482.391 398.266C481.911 398.411 481.234 398.484 480.359 398.484C479.641 398.484 478.958 398.349 478.312 398.078C477.667 397.807 477.099 397.427 476.609 396.938C476.141 396.458 475.766 395.87 475.484 395.172C475.203 394.464 475.062 393.719 475.062 392.938C475.062 391.729 475.318 390.703 475.828 389.859C476.339 389.005 477.146 388.328 478.25 387.828C479.229 387.38 480.385 387.073 481.719 386.906C483.052 386.729 484.49 386.599 486.031 386.516V385.953C486.031 385.266 485.927 384.714 485.719 384.297C485.51 383.87 485.219 383.542 484.844 383.312C484.469 383.073 484.01 382.917 483.469 382.844C482.927 382.76 482.37 382.719 481.797 382.719C481.12 382.719 480.323 382.823 479.406 383.031C478.49 383.229 477.573 383.521 476.656 383.906H476.484V380.922C477.026 380.766 477.802 380.594 478.812 380.406C479.823 380.219 480.823 380.125 481.812 380.125C483.01 380.125 484.021 380.219 484.844 380.406C485.667 380.594 486.406 380.932 487.062 381.422C487.698 381.901 488.172 382.521 488.484 383.281C488.797 384.042 488.953 384.969 488.953 386.062V398H486.031V396.141ZM502.344 383.703H502.188C501.969 383.641 501.734 383.604 501.484 383.594C501.245 383.573 500.953 383.562 500.609 383.562C499.818 383.562 499.031 383.734 498.25 384.078C497.469 384.422 496.729 384.932 496.031 385.609V398H493.094V380.547H496.031V383.141C497.104 382.193 498.036 381.526 498.828 381.141C499.63 380.745 500.406 380.547 501.156 380.547C501.458 380.547 501.682 380.557 501.828 380.578C501.984 380.589 502.156 380.609 502.344 380.641V383.703ZM509.906 398.344C508.302 398.344 507.052 397.891 506.156 396.984C505.26 396.068 504.812 394.625 504.812 392.656V382.984H502.828V380.547H504.812V375.531H507.75V380.547H513.156V382.984H507.75V391.281C507.75 392.167 507.766 392.849 507.797 393.328C507.828 393.807 507.948 394.255 508.156 394.672C508.333 395.036 508.62 395.312 509.016 395.5C509.411 395.677 509.948 395.766 510.625 395.766C511.104 395.766 511.568 395.698 512.016 395.562C512.464 395.417 512.786 395.297 512.984 395.203H513.156V397.844C512.604 398 512.042 398.12 511.469 398.203C510.906 398.297 510.385 398.344 509.906 398.344ZM522.922 398.406C520.141 398.406 517.979 397.625 516.438 396.062C514.906 394.49 514.141 392.26 514.141 389.375C514.141 386.531 514.885 384.271 516.375 382.594C517.865 380.906 519.812 380.062 522.219 380.062C523.302 380.062 524.26 380.219 525.094 380.531C525.927 380.844 526.656 381.333 527.281 382C527.906 382.667 528.385 383.484 528.719 384.453C529.052 385.411 529.219 386.589 529.219 387.984V389.578H517.125C517.125 391.609 517.635 393.161 518.656 394.234C519.677 395.307 521.089 395.844 522.891 395.844C523.536 395.844 524.167 395.771 524.781 395.625C525.406 395.479 525.969 395.292 526.469 395.062C527 394.823 527.448 394.594 527.812 394.375C528.177 394.146 528.479 393.932 528.719 393.734H528.891V396.938C528.547 397.073 528.12 397.245 527.609 397.453C527.099 397.651 526.641 397.807 526.234 397.922C525.661 398.078 525.141 398.198 524.672 398.281C524.214 398.365 523.63 398.406 522.922 398.406ZM526.359 387.328C526.339 386.536 526.245 385.854 526.078 385.281C525.911 384.708 525.672 384.224 525.359 383.828C525.016 383.391 524.573 383.057 524.031 382.828C523.5 382.599 522.839 382.484 522.047 382.484C521.266 382.484 520.599 382.604 520.047 382.844C519.505 383.073 519.01 383.411 518.562 383.859C518.125 384.318 517.792 384.828 517.562 385.391C517.333 385.943 517.188 386.589 517.125 387.328H526.359ZM541.438 383.703H541.281C541.062 383.641 540.828 383.604 540.578 383.594C540.339 383.573 540.047 383.562 539.703 383.562C538.911 383.562 538.125 383.734 537.344 384.078C536.562 384.422 535.823 384.932 535.125 385.609V398H532.188V380.547H535.125V383.141C536.198 382.193 537.13 381.526 537.922 381.141C538.724 380.745 539.5 380.547 540.25 380.547C540.552 380.547 540.776 380.557 540.922 380.578C541.078 380.589 541.25 380.609 541.438 380.641V383.703ZM562.906 376.5H562.75C562.49 376.406 562.115 376.318 561.625 376.234C561.135 376.141 560.698 376.094 560.312 376.094C559.073 376.094 558.188 376.375 557.656 376.938C557.135 377.49 556.875 378.495 556.875 379.953V380.547H561.734V382.984H556.969V398H554.031V382.984H552.047V380.547H554.031V379.969C554.031 377.865 554.536 376.266 555.547 375.172C556.557 374.078 558.005 373.531 559.891 373.531C560.432 373.531 560.964 373.562 561.484 373.625C562.005 373.677 562.479 373.74 562.906 373.812V376.5ZM578.266 389.281C578.266 392.219 577.557 394.49 576.141 396.094C574.724 397.688 572.839 398.484 570.484 398.484C568.057 398.484 566.146 397.661 564.75 396.016C563.365 394.359 562.672 392.115 562.672 389.281C562.672 386.365 563.385 384.099 564.812 382.484C566.25 380.87 568.141 380.062 570.484 380.062C572.839 380.062 574.724 380.87 576.141 382.484C577.557 384.089 578.266 386.354 578.266 389.281ZM575.234 389.281C575.234 387.021 574.823 385.344 574 384.25C573.177 383.146 572.005 382.594 570.484 382.594C568.953 382.594 567.771 383.146 566.938 384.25C566.115 385.344 565.703 387.021 565.703 389.281C565.703 391.469 566.115 393.13 566.938 394.266C567.771 395.391 568.953 395.953 570.484 395.953C571.995 395.953 573.161 395.401 573.984 394.297C574.818 393.182 575.234 391.51 575.234 389.281ZM590.531 383.703H590.375C590.156 383.641 589.922 383.604 589.672 383.594C589.432 383.573 589.141 383.562 588.797 383.562C588.005 383.562 587.219 383.734 586.438 384.078C585.656 384.422 584.917 384.932 584.219 385.609V398H581.281V380.547H584.219V383.141C585.292 382.193 586.224 381.526 587.016 381.141C587.818 380.745 588.594 380.547 589.344 380.547C589.646 380.547 589.87 380.557 590.016 380.578C590.172 380.589 590.344 380.609 590.531 380.641V383.703ZM619.938 398H616.844V386.609H606.141V398H603.047V374.734H606.141V383.859H616.844V374.734H619.938V398ZM630.109 398V377.484H622.297V374.734H641.016V377.484H633.203V398H630.109ZM663.297 398H660.203V377.953L654.141 391.594H652.266L646.25 377.953V398H643.359V374.734H647.578L653.391 387.688L659 374.734H663.297V398ZM681.5 398H668.016V374.734H671.109V395.25H681.5V398ZM703.047 398.422C701.526 398.422 700.125 398.167 698.844 397.656C697.573 397.146 696.474 396.385 695.547 395.375C694.62 394.365 693.901 393.104 693.391 391.594C692.88 390.083 692.625 388.349 692.625 386.391C692.625 384.443 692.87 382.745 693.359 381.297C693.859 379.849 694.583 378.589 695.531 377.516C696.458 376.474 697.557 375.682 698.828 375.141C700.099 374.589 701.521 374.312 703.094 374.312C703.875 374.312 704.604 374.37 705.281 374.484C705.969 374.599 706.604 374.745 707.188 374.922C707.688 375.078 708.198 375.276 708.719 375.516C709.25 375.745 709.771 376 710.281 376.281V380.016H710.031C709.76 379.766 709.411 379.464 708.984 379.109C708.557 378.755 708.036 378.406 707.422 378.062C706.828 377.74 706.182 377.474 705.484 377.266C704.786 377.057 703.979 376.953 703.062 376.953C702.073 376.953 701.135 377.156 700.25 377.562C699.365 377.969 698.589 378.568 697.922 379.359C697.266 380.151 696.755 381.146 696.391 382.344C696.026 383.542 695.844 384.891 695.844 386.391C695.844 387.984 696.036 389.359 696.422 390.516C696.807 391.661 697.333 392.63 698 393.422C698.646 394.193 699.406 394.776 700.281 395.172C701.156 395.557 702.083 395.75 703.062 395.75C703.958 395.75 704.786 395.641 705.547 395.422C706.307 395.203 706.984 394.927 707.578 394.594C708.151 394.271 708.646 393.943 709.062 393.609C709.479 393.266 709.807 392.974 710.047 392.734H710.281V396.422C709.771 396.661 709.286 396.891 708.828 397.109C708.38 397.328 707.833 397.542 707.188 397.75C706.51 397.969 705.88 398.135 705.297 398.25C704.724 398.365 703.974 398.422 703.047 398.422ZM727.297 389.281C727.297 392.219 726.589 394.49 725.172 396.094C723.755 397.688 721.87 398.484 719.516 398.484C717.089 398.484 715.177 397.661 713.781 396.016C712.396 394.359 711.703 392.115 711.703 389.281C711.703 386.365 712.417 384.099 713.844 382.484C715.281 380.87 717.172 380.062 719.516 380.062C721.87 380.062 723.755 380.87 725.172 382.484C726.589 384.089 727.297 386.354 727.297 389.281ZM724.266 389.281C724.266 387.021 723.854 385.344 723.031 384.25C722.208 383.146 721.036 382.594 719.516 382.594C717.984 382.594 716.802 383.146 715.969 384.25C715.146 385.344 714.734 387.021 714.734 389.281C714.734 391.469 715.146 393.13 715.969 394.266C716.802 395.391 717.984 395.953 719.516 395.953C721.026 395.953 722.193 395.401 723.016 394.297C723.849 393.182 724.266 391.51 724.266 389.281ZM743.75 398H740.812V396.219C740.354 396.604 739.958 396.922 739.625 397.172C739.292 397.422 738.901 397.651 738.453 397.859C738.036 398.057 737.604 398.208 737.156 398.312C736.708 398.427 736.188 398.484 735.594 398.484C734.646 398.484 733.766 398.286 732.953 397.891C732.151 397.495 731.469 396.917 730.906 396.156C730.333 395.385 729.891 394.438 729.578 393.312C729.266 392.177 729.109 390.875 729.109 389.406C729.109 387.875 729.307 386.552 729.703 385.438C730.099 384.312 730.646 383.333 731.344 382.5C731.979 381.74 732.745 381.146 733.641 380.719C734.547 380.281 735.495 380.062 736.484 380.062C737.359 380.062 738.12 380.161 738.766 380.359C739.411 380.547 740.094 380.844 740.812 381.25V373.688H743.75V398ZM740.812 393.75V383.688C740.083 383.333 739.427 383.089 738.844 382.953C738.271 382.818 737.646 382.75 736.969 382.75C735.458 382.75 734.276 383.318 733.422 384.453C732.568 385.578 732.141 387.208 732.141 389.344C732.141 391.396 732.469 392.969 733.125 394.062C733.781 395.146 734.833 395.688 736.281 395.688C737.052 395.688 737.828 395.516 738.609 395.172C739.391 394.818 740.125 394.344 740.812 393.75ZM751 398H748.062V380.547H751V398ZM751.203 377.625H747.859V374.578H751.203V377.625ZM769.031 398H766.094V388.062C766.094 387.26 766.052 386.516 765.969 385.828C765.896 385.13 765.75 384.573 765.531 384.156C765.292 383.719 764.958 383.396 764.531 383.188C764.104 382.969 763.521 382.859 762.781 382.859C762.052 382.859 761.297 383.057 760.516 383.453C759.745 383.839 758.99 384.344 758.25 384.969V398H755.312V380.547H758.25V382.484C759.125 381.703 759.99 381.104 760.844 380.688C761.698 380.271 762.599 380.062 763.547 380.062C765.266 380.062 766.609 380.63 767.578 381.766C768.547 382.891 769.031 384.526 769.031 386.672V398ZM783.656 393.266V383.688C782.927 383.333 782.25 383.083 781.625 382.938C781.01 382.781 780.396 382.703 779.781 382.703C778.292 382.703 777.12 383.25 776.266 384.344C775.411 385.438 774.984 387.005 774.984 389.047C774.984 390.984 775.307 392.458 775.953 393.469C776.609 394.479 777.667 394.984 779.125 394.984C779.885 394.984 780.667 394.833 781.469 394.531C782.281 394.229 783.01 393.807 783.656 393.266ZM773.781 400.797C773.979 400.88 774.271 400.99 774.656 401.125C775.042 401.271 775.479 401.406 775.969 401.531C776.51 401.667 777.01 401.776 777.469 401.859C777.927 401.943 778.427 401.984 778.969 401.984C779.875 401.984 780.641 401.865 781.266 401.625C781.901 401.385 782.396 401.052 782.75 400.625C783.083 400.198 783.318 399.703 783.453 399.141C783.589 398.578 783.656 397.938 783.656 397.219V395.688C782.865 396.375 782.089 396.885 781.328 397.219C780.568 397.542 779.615 397.703 778.469 397.703C776.479 397.703 774.896 396.964 773.719 395.484C772.542 394.005 771.953 391.88 771.953 389.109C771.953 387.661 772.156 386.38 772.562 385.266C772.969 384.141 773.516 383.188 774.203 382.406C774.859 381.656 775.635 381.078 776.531 380.672C777.427 380.266 778.354 380.062 779.312 380.062C780.219 380.062 781 380.172 781.656 380.391C782.323 380.599 782.99 380.901 783.656 381.297L783.828 380.547H786.594V396.016C786.594 398.974 785.948 401.146 784.656 402.531C783.365 403.917 781.391 404.609 778.734 404.609C777.88 404.609 777.005 404.542 776.109 404.406C775.224 404.271 774.396 404.089 773.625 403.859V400.797H773.781Z" fill="white"/>
</svg>
